<svg xmlns="http://www.w3.org/2000/svg" viewBox="0 0 96 72" width="264" height="198" fill="none" role="img" aria-label="DataVirgo">
  <g style="fill: var(--color-link, #5aa2ea)">
    <rect x="9" y="42" width="4" height="10" />
    <rect x="15" y="36" width="4" height="16" />
    <rect x="21" y="30" width="4" height="22" />
    <rect x="77" y="18" width="4" height="4" />
    <rect x="83" y="24" width="3" height="3" opacity="0.7" />
    <rect x="78" y="27" width="3" height="3" opacity="0.5" />
    <rect x="87" y="15" width="2" height="2" opacity="0.5" />
  </g>
  <circle cx="48" cy="36" r="27" style="stroke: var(--color-text-muted, #95a0b3)" stroke-width="1.4" />
  <ellipse cx="48" cy="39" rx="43" ry="10" transform="rotate(-12 48 39)" style="stroke: var(--color-text, #e4e9f0)" stroke-width="1.3" />
  <g transform="translate(17 8)" style="stroke: var(--color-text, #e4e9f0)" stroke-width="3" stroke-linecap="round" stroke-linejoin="round">
    <path d="M15 23 C17 21 20 22 20 27 V46" />
    <path d="M20 28 C20 20 29 20 29 27 V46" />
    <path d="M29 28 C29 20 38 20 38 27 V39 C38 46 45 47 47 41 C49 35 44 32 40 38 C38 41 38 44 36 48" />
  </g>
</svg>
